<mxfile host="app.diagrams.net" modified="2022-09-23T16:44:40.884Z" agent="5.0 (Windows NT 10.0; Win64; x64) AppleWebKit/537.36 (KHTML, like Gecko) Chrome/105.0.0.0 Safari/537.36" etag="kULtXpOiaexlhLZItXDR" version="20.3.6" type="github">
  <diagram id="Zq4mMX1pnsTeexaTwuX9" name="Página-1">
    <mxGraphModel dx="959" dy="520" grid="1" gridSize="10" guides="1" tooltips="1" connect="1" arrows="1" fold="1" page="1" pageScale="1" pageWidth="827" pageHeight="1169" math="0" shadow="0">
      <root>
        <mxCell id="0" />
        <mxCell id="1" parent="0" />
        <mxCell id="VIA6XZfmwnxuSzyMts4s-3" value="" style="edgeStyle=orthogonalEdgeStyle;rounded=0;orthogonalLoop=1;jettySize=auto;html=1;strokeColor=#006658;fontColor=#5C5C5C;" edge="1" parent="1" source="VIA6XZfmwnxuSzyMts4s-1" target="VIA6XZfmwnxuSzyMts4s-2">
          <mxGeometry relative="1" as="geometry" />
        </mxCell>
        <mxCell id="VIA6XZfmwnxuSzyMts4s-1" value="inicio" style="ellipse;whiteSpace=wrap;html=1;fillColor=#d5e8d4;strokeColor=#82b366;gradientColor=#97d077;" vertex="1" parent="1">
          <mxGeometry x="340" y="40" width="60" height="40" as="geometry" />
        </mxCell>
        <mxCell id="VIA6XZfmwnxuSzyMts4s-5" value="" style="edgeStyle=orthogonalEdgeStyle;rounded=0;orthogonalLoop=1;jettySize=auto;html=1;strokeColor=#006658;fontColor=#5C5C5C;" edge="1" parent="1" source="VIA6XZfmwnxuSzyMts4s-2" target="VIA6XZfmwnxuSzyMts4s-4">
          <mxGeometry relative="1" as="geometry" />
        </mxCell>
        <mxCell id="VIA6XZfmwnxuSzyMts4s-2" value="num" style="whiteSpace=wrap;html=1;fillColor=#fff2cc;strokeColor=#d6b656;gradientColor=#ffd966;" vertex="1" parent="1">
          <mxGeometry x="340" y="100" width="60" height="40" as="geometry" />
        </mxCell>
        <mxCell id="VIA6XZfmwnxuSzyMts4s-7" value="" style="edgeStyle=orthogonalEdgeStyle;rounded=0;orthogonalLoop=1;jettySize=auto;html=1;strokeColor=#006658;fontColor=#5C5C5C;" edge="1" parent="1" source="VIA6XZfmwnxuSzyMts4s-4" target="VIA6XZfmwnxuSzyMts4s-6">
          <mxGeometry relative="1" as="geometry" />
        </mxCell>
        <mxCell id="VIA6XZfmwnxuSzyMts4s-4" value="&quot;Digite un número&quot;" style="shape=document;whiteSpace=wrap;html=1;boundedLbl=1;fillColor=#dae8fc;strokeColor=#6c8ebf;gradientColor=#7ea6e0;" vertex="1" parent="1">
          <mxGeometry x="310" y="160" width="120" height="40" as="geometry" />
        </mxCell>
        <mxCell id="VIA6XZfmwnxuSzyMts4s-11" value="" style="edgeStyle=orthogonalEdgeStyle;rounded=0;orthogonalLoop=1;jettySize=auto;html=1;strokeColor=#006658;fontColor=#5C5C5C;" edge="1" parent="1" source="VIA6XZfmwnxuSzyMts4s-6" target="VIA6XZfmwnxuSzyMts4s-10">
          <mxGeometry relative="1" as="geometry" />
        </mxCell>
        <mxCell id="VIA6XZfmwnxuSzyMts4s-6" value="num" style="shape=parallelogram;perimeter=parallelogramPerimeter;whiteSpace=wrap;html=1;fixedSize=1;fillColor=#f8cecc;strokeColor=#b85450;gradientColor=#ea6b66;" vertex="1" parent="1">
          <mxGeometry x="330" y="210" width="80" height="40" as="geometry" />
        </mxCell>
        <mxCell id="VIA6XZfmwnxuSzyMts4s-13" value="" style="edgeStyle=orthogonalEdgeStyle;rounded=0;orthogonalLoop=1;jettySize=auto;html=1;strokeColor=#006658;fontColor=#5C5C5C;" edge="1" parent="1" source="VIA6XZfmwnxuSzyMts4s-10" target="VIA6XZfmwnxuSzyMts4s-12">
          <mxGeometry relative="1" as="geometry" />
        </mxCell>
        <mxCell id="VIA6XZfmwnxuSzyMts4s-15" value="" style="edgeStyle=orthogonalEdgeStyle;rounded=0;orthogonalLoop=1;jettySize=auto;html=1;strokeColor=#006658;fontColor=#5C5C5C;" edge="1" parent="1" source="VIA6XZfmwnxuSzyMts4s-10" target="VIA6XZfmwnxuSzyMts4s-14">
          <mxGeometry relative="1" as="geometry" />
        </mxCell>
        <mxCell id="VIA6XZfmwnxuSzyMts4s-10" value="num/(num/2) == 2" style="rhombus;whiteSpace=wrap;html=1;fillColor=#e6d0de;strokeColor=#996185;gradientColor=#d5739d;" vertex="1" parent="1">
          <mxGeometry x="300" y="270" width="140" height="60" as="geometry" />
        </mxCell>
        <mxCell id="VIA6XZfmwnxuSzyMts4s-17" style="edgeStyle=orthogonalEdgeStyle;rounded=0;orthogonalLoop=1;jettySize=auto;html=1;entryX=0.5;entryY=0;entryDx=0;entryDy=0;strokeColor=#006658;fontColor=#5C5C5C;fillColor=#21C0A5;" edge="1" parent="1" source="VIA6XZfmwnxuSzyMts4s-12" target="VIA6XZfmwnxuSzyMts4s-16">
          <mxGeometry relative="1" as="geometry">
            <Array as="points">
              <mxPoint x="216" y="390" />
              <mxPoint x="370" y="390" />
            </Array>
          </mxGeometry>
        </mxCell>
        <mxCell id="VIA6XZfmwnxuSzyMts4s-12" value="num, &quot; es par&quot;" style="shape=document;whiteSpace=wrap;html=1;boundedLbl=1;fillColor=#dae8fc;strokeColor=#6c8ebf;gradientColor=#7ea6e0;" vertex="1" parent="1">
          <mxGeometry x="170" y="340" width="93" height="37" as="geometry" />
        </mxCell>
        <mxCell id="VIA6XZfmwnxuSzyMts4s-18" style="edgeStyle=orthogonalEdgeStyle;rounded=0;orthogonalLoop=1;jettySize=auto;html=1;entryX=0.5;entryY=0;entryDx=0;entryDy=0;strokeColor=#006658;fontColor=#5C5C5C;fillColor=#21C0A5;" edge="1" parent="1" source="VIA6XZfmwnxuSzyMts4s-14" target="VIA6XZfmwnxuSzyMts4s-16">
          <mxGeometry relative="1" as="geometry">
            <Array as="points">
              <mxPoint x="540" y="390" />
              <mxPoint x="370" y="390" />
            </Array>
          </mxGeometry>
        </mxCell>
        <mxCell id="VIA6XZfmwnxuSzyMts4s-14" value="num, &quot;es impar&quot;" style="shape=document;whiteSpace=wrap;html=1;boundedLbl=1;fillColor=#dae8fc;strokeColor=#6c8ebf;gradientColor=#7ea6e0;" vertex="1" parent="1">
          <mxGeometry x="490" y="340" width="100" height="40" as="geometry" />
        </mxCell>
        <mxCell id="VIA6XZfmwnxuSzyMts4s-16" value="fin" style="ellipse;whiteSpace=wrap;html=1;strokeColor=#82b366;fillColor=#d5e8d4;gradientColor=#97d077;" vertex="1" parent="1">
          <mxGeometry x="340" y="440" width="60" height="40" as="geometry" />
        </mxCell>
      </root>
    </mxGraphModel>
  </diagram>
</mxfile>
